<?xml version="1.0" encoding="utf-8"?>
<!-- Svg Vector Icons : http://www.onlinewebfonts.com/icon -->
<!DOCTYPE svg PUBLIC "-//W3C//DTD SVG 1.1//EN" "http://www.w3.org/Graphics/SVG/1.1/DTD/svg11.dtd">
<svg version="1.1" xmlns="http://www.w3.org/2000/svg" xmlns:xlink="http://www.w3.org/1999/xlink" x="0px" y="0px" viewBox="0 0 256 256" enable-background="new 0 0 256 256" xml:space="preserve">
<metadata> Svg Vector Icons : http://www.onlinewebfonts.com/icon </metadata>
<g><g><g><path fill="white" d="M149.5,10.5c-17.8,3-32.1,16.4-37.2,34.6c-1,3.5-1.1,5.5-1.3,24.5l-0.2,20.7h-2c-5.9,0-20.3,3-28.8,5.9c-19.8,6.9-31.9,17.9-33.2,30.3c-0.3,2.8-0.2,2.9,1.6,4.9c3.2,3.6,9,6.1,20.4,8.6l6.2,1.4l0.2,22.9l0.1,23l1.3,0.6c1.1,0.5,1.4,0.4,2.3-0.4c1-0.9,1-1.5,1-23.2v-22.3l2.2,0.3c1.2,0.2,5,0.6,8.5,0.9l6.4,0.6v6.9c0,7.2,0.3,8,2.3,8c2,0,2.3-0.9,2.3-7.9V144h2.4c1.4,0,5.2,0.2,8.5,0.4l6.1,0.3v13.7c0,12.6,0.1,13.7,0.9,14.5c1.2,1.1,2.3,1.1,3.3-0.1c0.8-0.8,0.9-2.6,0.9-14.5v-13.6l6.1-0.3c3.3-0.2,7.1-0.4,8.3-0.4h2.2v6.7c0,7,0.3,7.9,2.3,7.9c2,0,2.3-0.9,2.3-8v-6.8l6.7-0.7c3.6-0.3,7.5-0.7,8.5-0.9l1.9-0.3v22.3c0,21.7,0.1,22.3,1,23.2c0.9,0.8,1.2,0.8,2.3,0.4l1.3-0.6l0.1-22.9l0.2-23l5.5-1.1c11.5-2.4,18.3-5.2,21.6-8.9c1.8-2,1.8-2.1,1.6-4.9c-1.6-14.5-18.3-27.3-43.8-33.2c-6-1.4-15.1-2.9-18-2.9c-3.6,0-3.4,1.4-3.4-19.1c0-11.4,0.2-19.5,0.6-21.1c1.9-9.2,9.2-17.2,18.5-20c3-1,4.8-1,29.4-1c29.7,0,27.6,0.3,29.7-4.2s1.3-10.7-1.8-13.8c-1.1-1.1-1.3-1.1-27.8-1C163.9,10.1,150.8,10.3,149.5,10.5z M204.6,16c1.1,2,1,5-0.3,6.9l-1,1.7h-25.3c-28,0-28.1,0-35,3.4c-5.3,2.6-11.6,8.9-14.2,14.2c-3.1,6.4-3.4,9.1-3.4,29.6v18.1h-5.1h-5l0.2-20.7c0.2-19.6,0.3-20.9,1.4-24.5c3.5-11.8,10.9-20.8,21.4-25.9c8.4-4.1,8.9-4.2,39-4.2l26.5-0.1L204.6,16z M137,95.1c23.2,2.7,41.5,10.6,49.5,21.4c1.2,1.7,2.2,3.2,2.2,3.5c0,0.2-1.1-0.1-2.4-0.6c-25.7-11-105.1-11-130.8,0c-1.4,0.6-2.4,0.8-2.4,0.6c0-0.3,1-1.8,2.2-3.5c7.9-10.6,26.2-18.7,49-21.4C111.8,94.2,129.4,94.2,137,95.1z M140.3,116.4c26.1,1.5,48,6.2,50.1,10.8c0.8,1.7,0.1,2.4-3.8,4.2c-3.1,1.5-13.3,4.3-17.9,4.9l-2.5,0.4v-5c0-5.3-0.4-6.2-2.4-6.2c-1.7,0-2.2,1.5-2.2,6.9v5l-1.6,0.3c-5.2,1-24.9,2.4-32.4,2.4h-4.2v-6.5c0-6.9-0.4-8.1-2.5-8.1c-2.2,0-2.5,1.2-2.5,8.1v6.5h-4.1c-7.5,0-25-1.3-32.4-2.3l-2.2-0.3V132c0-5.6-0.3-6.6-2.3-6.6c-1.9,0-2.3,1-2.3,6.1c0,4.2-0.1,4.9-0.8,4.9c-1.5,0-12.4-2.6-15.9-3.8c-4.3-1.5-7.4-3.5-7.4-4.8c0-4.9,24.4-10.3,52.5-11.7C111.3,115.9,132.6,116,140.3,116.4z"/><path fill="#000000" d="M97.5,169.8c-0.5,0.5-0.6,4.7-0.6,16c0,14.8,0,15.5,1,16.3c0.9,0.8,1.2,0.8,2.3,0.4l1.3-0.6v-15.7c0-16.5-0.1-16.9-2.3-16.9C98.5,169.1,97.8,169.4,97.5,169.8z"/><path fill="#000000" d="M140.6,169.8c-0.5,0.5-0.6,4.8-0.6,16.3c0,15,0.1,15.7,1,16.2c1.4,0.7,1.9,0.7,2.8-0.3c0.7-0.7,0.8-2.9,0.8-16.2c0-16.2-0.1-16.6-2.3-16.6C141.7,169.1,141,169.4,140.6,169.8z"/><path fill="#000000" d="M119.5,184.2c-1,1-1,1.7-1,16.1c0,14.4,0.1,15.1,1,16.1c1.3,1.3,1.8,1.3,3,0c1-1,1-1.7,1-16.1s0-15.1-1-16.1c-0.6-0.6-1.2-1-1.5-1C120.7,183.2,120,183.7,119.5,184.2z"/><path fill="#000000" d="M76.2,198.3c-0.8,0.5-0.9,1.5-0.9,9.2c0,8.3,0.1,8.8,1.1,9.3c0.8,0.5,1.3,0.4,2.3-0.3c1.2-0.8,1.2-0.9,1.2-9c0-7.3-0.1-8.3-0.9-9C77.8,197.7,77.4,197.6,76.2,198.3z"/><path fill="#000000" d="M162.5,198.7c-0.7,0.8-0.9,2.2-0.9,9c0,8,0,8.1,1.2,8.9c1,0.7,1.5,0.7,2.3,0.3c1-0.5,1.1-1,1.1-9.3c0-8.1-0.1-8.8-1-9.3C163.8,197.6,163.4,197.6,162.5,198.7z"/><path fill="#000000" d="M97.7,213.1c-0.7,0.7-0.8,2.9-0.8,16.2c0,16.2,0,16.6,2.3,16.6c2.2,0,2.3-0.4,2.3-16.9c0-15-0.1-15.7-1-16.2C99.1,212.1,98.6,212.2,97.7,213.1z"/><path fill="#000000" d="M141,212.9c-0.9,0.5-0.9,1.8-0.9,16.2c0,16.5,0.1,16.9,2.3,16.9s2.3-0.4,2.3-16.6c0-13.4-0.1-15.6-0.8-16.2C142.9,212.2,142.2,212.1,141,212.9z"/><path fill="#000000" d="M75.9,227.5c-0.9,0.9-0.9,17,0,17.9c0.8,0.8,2.6,0.8,3.3,0c0.4-0.4,0.6-3.1,0.6-8.7c0-6.7-0.2-8.3-0.8-8.9C78.1,226.7,76.7,226.6,75.9,227.5z"/><path fill="#000000" d="M119.3,227.8c-0.7,0.8-0.9,2.2-0.9,8.6c0,4.3,0.3,8.1,0.5,8.6c0.7,1.3,3.3,1.3,4,0c0.3-0.6,0.5-4.3,0.5-8.4c0-5.9-0.2-7.7-0.8-8.6C121.8,226.6,120.4,226.6,119.3,227.8z"/><path fill="#000000" d="M162.4,227.7c-0.7,0.7-0.8,2.1-0.7,9.1c0.2,9.1,0.4,9.7,3.1,9l1.4-0.3v-8.7c0-8.9-0.2-9.9-2.1-9.9C163.6,226.9,162.8,227.2,162.4,227.7z"/></g></g></g>
</svg>